<svg width="98" height="40" viewBox="0 0 98 40" fill="none" xmlns="http://www.w3.org/2000/svg">
<path d="M0.972423 32L9.88107 10.2303H12.0141L20.8914 32H17.6918L10.383 13.5867H11.4809L4.10927 32H0.972423ZM5.20717 27.0751V24.5029H16.6567V27.0751H5.20717Z" fill="url(#paint0_linear_1_2274)"/>
<path d="M31.9124 32.3137C30.7832 32.3137 29.7585 32.0836 28.8383 31.6236C27.9391 31.1426 27.2176 30.4839 26.6739 29.6474C26.1302 28.8109 25.827 27.8594 25.7642 26.7928V22.3071C25.827 21.2197 26.1302 20.2682 26.6739 19.4526C27.2385 18.6161 27.9705 17.9678 28.8697 17.5078C29.7898 17.0268 30.8041 16.7863 31.9124 16.7863C33.2717 16.7863 34.4951 17.1313 35.5826 17.8214C36.6909 18.5115 37.5588 19.4421 38.1861 20.6132C38.8135 21.7843 39.1272 23.1018 39.1272 24.5657C39.1272 26.0295 38.8135 27.347 38.1861 28.5181C37.5588 29.6892 36.6909 30.6198 35.5826 31.3099C34.4951 31.9791 33.2717 32.3137 31.9124 32.3137ZM24.0703 38.2423V17.1H26.8935V21.021L26.3602 24.6284L26.8935 28.2671V38.2423H24.0703ZM31.4419 29.6474C32.383 29.6474 33.209 29.4278 33.92 28.9886C34.631 28.5495 35.1957 27.9535 35.6139 27.2006C36.0322 26.4269 36.2413 25.5381 36.2413 24.5343C36.2413 23.5514 36.0322 22.6731 35.6139 21.8993C35.1957 21.1256 34.631 20.5296 33.92 20.1113C33.209 19.6722 32.3934 19.4526 31.4733 19.4526C30.5322 19.4526 29.7062 19.6722 28.9952 20.1113C28.2842 20.5296 27.73 21.1256 27.3326 21.8993C26.9353 22.6731 26.7366 23.5619 26.7366 24.5657C26.7366 25.5485 26.9249 26.4269 27.3013 27.2006C27.6986 27.9535 28.2528 28.5495 28.9638 28.9886C29.6957 29.4278 30.5218 29.6474 31.4419 29.6474ZM44.1582 32V10.8576H46.9813V32H44.1582ZM40.488 19.6722V17.1H50.6514V19.6722H40.488ZM59.4084 32.3137C58.1955 32.3137 57.0976 32.0418 56.1147 31.4981C55.1527 30.9335 54.3999 30.1597 53.8562 29.1768C53.3124 28.194 53.0406 27.0542 53.0406 25.7577V17.1H55.8638V25.6322C55.8638 26.4478 55.9997 27.1588 56.2715 27.7653C56.5643 28.3508 56.9826 28.8004 57.5263 29.1141C58.07 29.4278 58.7078 29.5846 59.4398 29.5846C60.5481 29.5846 61.416 29.2396 62.0433 28.5495C62.6707 27.8384 62.9844 26.866 62.9844 25.6322V17.1H65.8076V25.7577C65.8076 27.0542 65.5357 28.194 64.992 29.1768C64.4483 30.1597 63.6954 30.9335 62.7335 31.4981C61.7924 32.0418 60.684 32.3137 59.4084 32.3137ZM69.5914 32V17.1H72.4146V32H69.5914ZM72.4146 23.4991L71.348 23.0286C71.348 21.1256 71.7872 19.6094 72.6655 18.4802C73.5438 17.3509 74.809 16.7863 76.4611 16.7863C77.2139 16.7863 77.8936 16.9222 78.5 17.1941C79.1065 17.445 79.6711 17.8737 80.1939 18.4802L78.3432 20.3937C78.0295 20.0591 77.6845 19.8186 77.308 19.6722C76.9316 19.5258 76.4925 19.4526 75.9906 19.4526C74.9449 19.4526 74.0875 19.7872 73.4183 20.4564C72.7492 21.1256 72.4146 22.1398 72.4146 23.4991ZM88.028 32.3137C86.6687 32.3137 85.4348 31.9791 84.3265 31.3099C83.2181 30.6198 82.3398 29.6892 81.6915 28.5181C81.0642 27.347 80.7505 26.0295 80.7505 24.5657C80.7505 23.1018 81.0642 21.7843 81.6915 20.6132C82.3398 19.4421 83.2077 18.5115 84.2951 17.8214C85.4035 17.1313 86.6478 16.7863 88.028 16.7863C89.1572 16.7863 90.161 17.0268 91.0393 17.5078C91.9386 17.9678 92.6601 18.6161 93.2038 19.4526C93.7475 20.2682 94.0507 21.2197 94.1135 22.3071V26.7928C94.0507 27.8594 93.7475 28.8109 93.2038 29.6474C92.681 30.4839 91.9699 31.1426 91.0707 31.6236C90.1924 32.0836 89.1781 32.3137 88.028 32.3137ZM88.4985 29.6474C89.8996 29.6474 91.0289 29.1768 91.8863 28.2358C92.7437 27.2738 93.1724 26.0504 93.1724 24.5657C93.1724 23.541 92.9737 22.6522 92.5764 21.8993C92.2 21.1256 91.6563 20.5296 90.9452 20.1113C90.2342 19.6722 89.4082 19.4526 88.4671 19.4526C87.5261 19.4526 86.6896 19.6722 85.9577 20.1113C85.2466 20.5505 84.682 21.157 84.2638 21.9307C83.8664 22.6836 83.6678 23.5514 83.6678 24.5343C83.6678 25.5381 83.8664 26.4269 84.2638 27.2006C84.682 27.9535 85.2571 28.5495 85.989 28.9886C86.721 29.4278 87.5574 29.6474 88.4985 29.6474ZM92.9842 32V27.9848L93.5175 24.3461L92.9842 20.7387V17.1H95.8387V32H92.9842Z" fill="white"/>
<defs>
<linearGradient id="paint0_linear_1_2274" x1="17.9143" y1="23.1183" x2="4.99174" y2="26.1891" gradientUnits="userSpaceOnUse">
<stop stop-color="white"/>
<stop offset="1" stop-color="#141414"/>
</linearGradient>
</defs>
</svg>
